<svg xmlns="http://www.w3.org/2000/svg" viewBox="0 0 1200 720" font-family="Helvetica, Arial, 'Hiragino Sans', 'Noto Sans JP', sans-serif">
<rect x="0" y="0" width="1200" height="720" fill="#ffffff"/>
<text x="30" y="24" font-size="16" font-weight="bold" fill="#111">duo-pocketbook インフラ構成図 — Cloudflare Access による実行元制限</text>
<defs>
<marker id="arrow" markerWidth="10" markerHeight="8" refX="8" refY="3" orient="auto" markerUnits="strokeWidth"><path d="M0,0 L8,3 L0,6 z" fill="#333333"/></marker>
<marker id="arrowRed" markerWidth="10" markerHeight="8" refX="8" refY="3" orient="auto" markerUnits="strokeWidth"><path d="M0,0 L8,3 L0,6 z" fill="#B85450"/></marker>
<marker id="arrowGray" markerWidth="10" markerHeight="8" refX="8" refY="3" orient="auto" markerUnits="strokeWidth"><path d="M0,0 L8,3 L0,6 z" fill="#6E7781"/></marker>
<marker id="arrowPurple" markerWidth="10" markerHeight="8" refX="8" refY="3" orient="auto" markerUnits="strokeWidth"><path d="M0,0 L8,3 L0,6 z" fill="#9673A6"/></marker>
</defs>
<rect x="330" y="34" width="180" height="50" rx="8" fill="#DAE8FC" stroke="#6C8EBF"/><text x="420.0" y="63.0" text-anchor="middle" font-size="10.5" font-weight="bold" fill="#1a3c66">クライアント</text>
<rect x="700" y="34" width="190" height="50" rx="8" fill="#F8CECC" stroke="#B85450"/><text x="795.0" y="63.0" text-anchor="middle" font-size="10.5" font-weight="bold" fill="#7a2b28">第三者・bot</text>
<rect x="40" y="140" width="230" height="160" rx="10" fill="#F0F0F0" stroke="#6E7781"/>
<svg x="55" y="156" width="26" height="26" viewBox="0 0 256 250" overflow="visible"><path fill="#161614" d="M128.001 0C57.317 0 0 57.307 0 128.001c0 56.554 36.676 104.535 87.535 121.46c6.397 1.185 8.746-2.777 8.746-6.158c0-3.052-.12-13.135-.174-23.83c-35.61 7.742-43.124-15.103-43.124-15.103c-5.823-14.795-14.213-18.73-14.213-18.73c-11.613-7.944.876-7.78.876-7.78c12.853.902 19.621 13.19 19.621 13.19c11.417 19.568 29.945 13.911 37.249 10.64c1.149-8.272 4.466-13.92 8.127-17.116c-28.431-3.236-58.318-14.212-58.318-63.258c0-13.975 5-25.394 13.188-34.358c-1.329-3.224-5.71-16.242 1.24-33.874c0 0 10.749-3.44 35.21 13.121c10.21-2.836 21.16-4.258 32.038-4.307c10.878.049 21.837 1.47 32.066 4.307c24.431-16.56 35.165-13.12 35.165-13.12c6.967 17.63 2.584 30.65 1.255 33.873c8.207 8.964 13.173 20.383 13.173 34.358c0 49.163-29.944 59.988-58.447 63.157c4.591 3.972 8.682 11.762 8.682 23.704c0 17.126-.148 30.91-.148 35.126c0 3.407 2.304 7.398 8.792 6.14C219.37 232.5 256 184.537 256 128.002C256 57.307 198.691 0 128.001 0m-80.06 182.34c-.282.636-1.283.827-2.194.39c-.929-.417-1.45-1.284-1.15-1.922c.276-.655 1.279-.838 2.205-.399c.93.418 1.46 1.293 1.139 1.931m6.296 5.618c-.61.566-1.804.303-2.614-.591c-.837-.892-.994-2.086-.375-2.66c.63-.566 1.787-.301 2.626.591c.838.903 1 2.088.363 2.66m4.32 7.188c-.785.545-2.067.034-2.86-1.104c-.784-1.138-.784-2.503.017-3.05c.795-.547 2.058-.055 2.861 1.075c.782 1.157.782 2.522-.019 3.08m7.304 8.325c-.701.774-2.196.566-3.29-.49c-1.119-1.032-1.43-2.496-.726-3.27c.71-.776 2.213-.558 3.315.49c1.11 1.03 1.45 2.505.701 3.27m9.442 2.81c-.31 1.003-1.75 1.459-3.199 1.033c-1.448-.439-2.395-1.613-2.103-2.626c.301-1.01 1.747-1.484 3.207-1.028c1.446.436 2.396 1.602 2.095 2.622m10.744 1.193c.036 1.055-1.193 1.93-2.715 1.95c-1.53.034-2.769-.82-2.786-1.86c0-1.065 1.202-1.932 2.733-1.958c1.522-.03 2.768.818 2.768 1.868m10.555-.405c.182 1.03-.875 2.088-2.387 2.37c-1.485.271-2.861-.365-3.05-1.386c-.184-1.056.893-2.114 2.376-2.387c1.514-.263 2.868.356 3.061 1.403"/></svg>
<text x="90" y="174" font-size="13" font-weight="bold" fill="#444">GitHub</text>
<rect x="300" y="120" width="300" height="470" rx="10" fill="#FDF0E6" stroke="#F6821F"/>
<svg x="540" y="130" width="44" height="20" viewBox="0 0 170 76" overflow="visible"><path fill="#fbad41" d="M132.234 32.698c-.552 0-1.097.02-1.641.037a.8.8 0 0 0-.256.06a.92.92 0 0 0-.593.64l-2.334 8.155c-1.006 3.506-.632 6.744 1.06 9.12c1.55 2.2 4.13 3.49 7.263 3.64l12.662.768c.376.02.702.2.9.5c.211.322.258.725.129 1.089a1.61 1.61 0 0 1-1.373 1.069l-13.157.768c-7.147.331-14.838 6.164-17.536 13.277l-.948 2.51a.703.703 0 0 0 .622.958h45.312a1.205 1.205 0 0 0 1.165-.878a33 33 0 0 0 1.204-8.885c0-18.12-14.529-32.808-32.459-32.808"/><path fill="#f6821f" d="m112.457 74.235l.838-2.949c1.009-3.506.635-6.744-1.054-9.12c-1.556-2.2-4.134-3.49-7.268-3.64l-59.395-.768a1.17 1.17 0 0 1-.939-.5a1.24 1.24 0 0 1-.13-1.089a1.61 1.61 0 0 1 1.385-1.069l59.95-.768c7.117-.329 14.807-6.164 17.505-13.277l3.419-9.035a2.3 2.3 0 0 0 .1-1.197C122.973 13.199 107.392 0 88.764 0c-17.172 0-31.741 11.199-36.97 26.767A17.37 17.37 0 0 0 39.47 23.32c-8.232.828-14.858 7.534-15.676 15.857a18 18 0 0 0 .452 6.204C10.792 45.78 0 56.92 0 70.608c0 1.238.088 2.457.266 3.647c.073.577.565 1.01 1.147 1.009h109.688a1.43 1.43 0 0 0 1.356-1.05"/></svg>
<text x="312" y="140" font-size="13" font-weight="bold" fill="#B5651A">Cloudflare</text>
<rect x="660" y="120" width="500" height="470" rx="10" fill="#FFF6E5" stroke="#FF9900"/>
<text x="672" y="140" font-size="13" font-weight="bold" fill="#B36B00">AWS  ap-northeast-1</text>
<rect x="55" y="196" width="200" height="40" rx="8" fill="#FFFFFF" stroke="#6E7781"/><text x="155.0" y="220.0" text-anchor="middle" font-size="10.5" font-weight="normal" fill="#222">リポジトリ / GitHub Actions</text>
<rect x="55" y="248" width="200" height="40" rx="8" fill="#FFFFFF" stroke="#6E7781"/><text x="155.0" y="272.0" text-anchor="middle" font-size="10.5" font-weight="normal" fill="#222">GitHub Pages</text>
<rect x="315" y="175" width="270" height="52" rx="8" fill="#FCE9D6" stroke="#F6821F"/><text x="450.0" y="199.0" text-anchor="middle" font-size="11" font-weight="bold" fill="#7a4410">Cloudflare Access</text><text x="450.0" y="215.0" text-anchor="middle" font-size="9.5" fill="#8a5418">クライアント2人のメールのみ許可</text>
<rect x="315" y="255" width="270" height="52" rx="8" fill="#FCE9D6" stroke="#F6821F"/><text x="450.0" y="279.0" text-anchor="middle" font-size="11" font-weight="bold" fill="#7a4410">Cloudflare Pages</text><text x="450.0" y="295.0" text-anchor="middle" font-size="9.5" fill="#8a5418">SPA配信</text>
<rect x="315" y="380" width="270" height="60" rx="8" fill="#FCE9D6" stroke="#F6821F"/><text x="450.0" y="408.0" text-anchor="middle" font-size="11" font-weight="bold" fill="#7a4410">Worker</text><text x="450.0" y="424.0" text-anchor="middle" font-size="9.5" fill="#8a5418">/api/* → Function URL・X-Client-Key注入</text>
<rect x="55" y="600" width="160" height="62" rx="8" fill="#EDE7F3" stroke="#9673A6"/>
<svg x="64" y="611" width="34" height="39" viewBox="0 0 256 291" overflow="visible"><path fill="#4040b2" d="M176.485 188.994L256 143.127V51.249l-79.515 45.963z"/><path fill="#5c4ee5" d="m88.243 51.249l79.515 45.963v91.782L88.243 143.08M0 91.83l79.515 45.916v-91.83L0 0m88.243 244.994l79.515 45.915v-91.83l-79.515-45.915"/></svg>
<text x="110" y="626" font-size="12" font-weight="bold" fill="#5b3a6b">Terraform</text>
<text x="110" y="642" font-size="10" fill="#6b4a7b">IaC</text>
<rect x="680" y="175" width="460" height="42" rx="8" fill="#FFE9C7" stroke="#E88B00"/><text x="910.0" y="200.0" text-anchor="middle" font-size="10.5" font-weight="bold" fill="#7a4a00">Lambda Function URL</text>
<svg x="740" y="255" width="44" height="44" viewBox="0 0 256 256" overflow="visible"><defs><linearGradient id="SVGeyciVcvH" x1="0%" x2="100%" y1="100%" y2="0%"><stop offset="0%" stop-color="#c8511b"/><stop offset="100%" stop-color="#f90"/></linearGradient></defs><path fill="url(#SVGeyciVcvH)" d="M0 0h256v256H0z"/><path fill="#fff" d="M89.624 211.2H49.89l43.945-91.853l19.912 40.992zm7.079-100.63a3.22 3.22 0 0 0-2.887-1.805h-.01a3.2 3.2 0 0 0-2.886 1.82L41.913 213.022a3.203 3.203 0 0 0 2.893 4.58l46.848-.001a3.21 3.21 0 0 0 2.9-1.83l25.65-54.08a3.18 3.18 0 0 0-.016-2.762zM207.985 211.2h-39.477L105.174 78.624a3.21 3.21 0 0 0-2.897-1.824h-25.83l.03-32h50.626l63.042 132.573a3.21 3.21 0 0 0 2.897 1.827h14.943zm3.208-38.4h-16.121L132.03 40.227a3.21 3.21 0 0 0-2.9-1.827H73.273a3.206 3.206 0 0 0-3.208 3.197l-.035 38.4c0 .851.333 1.664.94 2.265c.6.602 1.414.938 2.267.938h27.017l63.337 132.576a3.2 3.2 0 0 0 2.893 1.824h44.709a3.203 3.203 0 0 0 3.207-3.2V176c0-1.766-1.434-3.2-3.207-3.2"/></svg><text x="762" y="313" text-anchor="middle" font-size="11" fill="#7a4a00">Lambda</text>
<svg x="900" y="255" width="44" height="44" viewBox="0 0 256 256" overflow="visible"><defs><linearGradient id="SVGYPnorcPn" x1="0%" x2="100%" y1="100%" y2="0%"><stop offset="0%" stop-color="#bd0816"/><stop offset="100%" stop-color="#ff5252"/></linearGradient></defs><path fill="url(#SVGYPnorcPn)" d="M0 0h256v256H0z"/><path fill="#fff" d="M44.8 188.8h166.4V67.2H44.8zM217.6 64v128a3.2 3.2 0 0 1-3.2 3.2H41.6a3.2 3.2 0 0 1-3.2-3.2V64a3.2 3.2 0 0 1 3.2-3.2h172.8a3.2 3.2 0 0 1 3.2 3.2m-76.8 89.6h48v-6.4h-48zm41.6-19.2h16V128h-16zm-41.6 0h25.6V128h-25.6zm-48 12.8c0-1.763-1.434-3.2-3.2-3.2a3.203 3.203 0 0 0-3.2 3.2c0 1.763 1.434 3.2 3.2 3.2s3.2-1.437 3.2-3.2m6.4 0c0 4.166-2.685 7.683-6.4 9.011v6.989h-6.4v-6.992c-3.715-1.325-6.4-4.842-6.4-9.008c0-5.293 4.307-9.6 9.6-9.6s9.6 4.307 9.6 9.6m-38.4 25.578l57.58.022l.007-12.8H105.6v-6.4h12.787l.007-9.6H105.6v-6.4h12.797l.003-9.578L60.82 128zm9.6-51.175l38.4.016V99.2c.003-7.37-8.97-13.834-19.2-13.84h-.013c-10.214 0-19.174 6.467-19.18 13.84zm-16 54.371l.02-51.174a3.2 3.2 0 0 1 3.2-3.2l6.38.003l.006-22.403c.007-11.162 11.482-20.24 25.581-20.24h.013c14.118.006 25.603 9.088 25.6 20.24v22.422l6.4.004a3.2 3.2 0 0 1 3.2 3.2L124.78 176a3.2 3.2 0 0 1-3.2 3.2l-63.98-.026a3.2 3.2 0 0 1-3.2-3.2M192 115.2h6.4v-6.4H192zm-51.2 0H176v-6.4h-35.2z"/></svg><text x="922" y="313" text-anchor="middle" font-size="11" fill="#7a4a00">IAM Role</text>
<svg x="1060" y="255" width="44" height="44" viewBox="0 0 256 256" overflow="visible"><defs><linearGradient id="SVGte2wIbLN" x1="0%" x2="100%" y1="100%" y2="0%"><stop offset="0%" stop-color="#2e27ad"/><stop offset="100%" stop-color="#527fff"/></linearGradient></defs><path fill="url(#SVGte2wIbLN)" d="M0 0h256v256H0z"/><path fill="#fff" d="M166.675 175.52c-10.682 8.637-33.091 13.2-54.534 13.2c-21.447 0-43.863-4.566-54.541-13.202v17.392h.003c0 8.675 22.397 18.342 54.538 18.342c32.115 0 54.499-9.655 54.534-18.323zm.003-33.049l6.4-.035v.035c0 3.866-1.936 7.475-5.705 10.779c4.57 4.021 5.705 7.966 5.705 10.775c0 .02-.003.035-.003.054v28.831h.003c0 16.035-31.398 24.69-60.937 24.69c-29.469 0-60.781-8.617-60.931-24.578c0-.016-.01-.032-.01-.048v-28.958c0-.007.006-.016.006-.026c.01-2.809 1.15-6.738 5.712-10.75c-4.534-4.005-5.686-7.912-5.715-10.699h.003c0-.013-.006-.022-.006-.035v-28.958c0-.01.006-.02.006-.029c.01-2.809 1.152-6.738 5.716-10.743c-4.538-4.009-5.69-7.92-5.719-10.703h.003c0-.012-.006-.025-.006-.038V63.08c0-.01.006-.019.006-.029C51.261 47.04 82.624 38.4 112.141 38.4c16.675 0 32.694 2.65 43.948 7.271l-2.448 5.866c-10.505-4.314-25.632-6.79-41.5-6.79c-32.141 0-54.538 9.668-54.538 18.349c0 8.677 22.397 18.345 54.538 18.345c.867.01 1.715 0 2.573-.032l.268 6.342c-.947.038-1.894.038-2.841.038c-21.447 0-43.863-4.568-54.541-13.204V91.97h.003v.073c.032 3.329 3.447 6.236 6.307 8.083c8.608 5.488 24.032 9.236 41.232 10.014l-.29 6.341c-17.425-.79-32.682-4.405-42.503-9.946c-2.42 1.809-4.746 4.256-4.746 7.03c0 8.677 22.397 18.345 54.538 18.345c3.152 0 6.281-.105 9.305-.315l.445 6.332c-3.168.22-6.451.33-9.75.33c-21.447 0-43.863-4.567-54.541-13.203v17.383h.003c.032 3.403 3.447 6.307 6.307 8.157c9.844 6.281 28.327 10.192 48.23 10.192h1.409v6.347h-1.408c-20.221 0-38.599-3.754-49.837-10.099c-2.406 1.806-4.7 4.24-4.7 6.992c0 8.677 22.396 18.348 54.537 18.348c32.115 0 54.499-9.655 54.534-18.326v-.035c-.006-2.758-2.31-5.192-4.723-6.998a45 45 0 0 1-5.14 2.523l-2.45-5.865c2.323-.955 4.339-1.987 5.993-3.072c2.886-1.883 6.323-4.825 6.323-8.129m27.411-46.418h-17.932c-1.06 0-2.055-.52-2.647-1.39a3.14 3.14 0 0 1-.33-2.951l10.91-27.27h-41.31l-19.2 38.086h20.423c1.02 0 1.98.486 2.586 1.301c.598.82.774 1.87.464 2.838l-18.228 56.818zm9.821-.974l-79.996 82.648a3.22 3.22 0 0 1-2.31.974a3.2 3.2 0 0 1-1.636-.444a3.16 3.16 0 0 1-1.414-3.692l21.075-65.69h-21.226a3.21 3.21 0 0 1-2.723-1.504a3.15 3.15 0 0 1-.138-3.088l22.4-44.434a3.2 3.2 0 0 1 2.861-1.755h48a3.21 3.21 0 0 1 2.646 1.39a3.15 3.15 0 0 1 .33 2.955L180.87 89.706h20.73c1.28 0 2.441.761 2.944 1.93a3.16 3.16 0 0 1-.634 3.443M62.256 194.158c4.534 2.555 10.243 4.703 16.966 6.38l1.562-6.158c-6.077-1.514-11.389-3.5-15.366-5.742zm16.966-44.403l1.562-6.154c-6.077-1.517-11.389-3.504-15.366-5.745l-3.162 5.52c4.534 2.555 10.24 4.704 16.966 6.38M62.256 92.594l3.162-5.52c3.97 2.241 9.286 4.225 15.366 5.745l-1.562 6.154c-6.732-1.679-12.438-3.827-16.966-6.38"/></svg><text x="1082" y="313" text-anchor="middle" font-size="11" fill="#7a4a00">DynamoDB</text>
<svg x="740" y="400" width="44" height="44" viewBox="0 0 256 256" overflow="visible"><defs><linearGradient id="SVGyDrnJbhE" x1="0%" x2="100%" y1="100%" y2="0%"><stop offset="0%" stop-color="#b0084d"/><stop offset="100%" stop-color="#ff4f8b"/></linearGradient></defs><path fill="url(#SVGyDrnJbhE)" d="M0 0h256v256H0z"/><path fill="#fff" d="M176.19 149.688c0-12.51-10.246-22.688-22.84-22.688s-22.835 10.178-22.835 22.688s10.242 22.687 22.836 22.687s22.839-10.178 22.839-22.687m6.433 0c0 16.034-13.13 29.078-29.272 29.078c-16.139 0-29.27-13.044-29.27-29.078c0-16.035 13.131-29.078 29.27-29.078c16.141 0 29.272 13.043 29.272 29.078m27.008 43.827l-22.427-20.067a41.7 41.7 0 0 1-6.231 6.915l22.395 20.064c1.91 1.713 4.883 1.553 6.61-.345c1.718-1.898 1.564-4.848-.347-6.567m-56.28-8.998c19.335 0 35.065-15.625 35.065-34.83c0-19.207-15.73-34.829-35.065-34.829c-19.333 0-35.063 15.622-35.063 34.83c0 19.204 15.73 34.83 35.063 34.83m61.407 19.842a11.15 11.15 0 0 1-8.267 3.64a11.12 11.12 0 0 1-7.427-2.825l-23.286-20.86c-6.476 4.155-14.16 6.593-22.427 6.593c-22.881 0-41.496-18.492-41.496-41.22c0-22.73 18.615-41.22 41.496-41.22c22.884 0 41.499 18.49 41.499 41.22c0 6.521-1.573 12.67-4.3 18.156l23.388 20.926c4.542 4.08 4.909 11.069.82 15.59M68.097 94.056c0 1.662.103 3.317.3 4.918a3.194 3.194 0 0 1-2.635 3.537c-7.91 2.03-20.928 8.17-20.928 26.595c0 13.913 7.723 21.591 14.205 25.586c2.213 1.386 4.831 2.124 7.594 2.153l38.791.035l-.006 6.391l-38.82-.035c-3.986-.042-7.768-1.122-10.97-3.125c-6.423-3.96-17.228-13.264-17.228-31.005c0-21.386 14.72-29.292 23.36-32.085a46 46 0 0 1-.096-2.965c0-17.472 11.93-35.593 27.75-42.147c18.503-7.7 38.106-3.882 52.43 10.206c4.44 4.365 8.09 9.666 10.892 15.798c3.764-3.096 8.402-4.806 13.292-4.806c9.608 0 20.423 7.244 22.35 23.087c8.997 2.06 28.008 9.263 28.008 33.158c0 9.542-3.01 17.421-8.952 23.422l-4.587-4.483c4.716-4.76 7.106-11.132 7.106-18.939c0-20.9-17.615-26.1-25.194-27.362a3.2 3.2 0 0 1-2.117-1.345a3.17 3.17 0 0 1-.518-2.358c-1.051-12.973-8.81-18.789-16.096-18.789c-4.597 0-8.907 2.224-11.828 6.103a3.22 3.22 0 0 1-3.05 1.246a3.22 3.22 0 0 1-2.55-2.073c-2.635-7.25-6.43-13.348-11.282-18.115c-12.413-12.21-29.388-15.52-45.423-8.851c-13.347 5.528-23.798 21.447-23.798 36.248"/></svg><text x="762" y="458" text-anchor="middle" font-size="11" fill="#7a4a00">CloudWatch Logs</text>
<rect x="900" y="400" width="44" height="44" rx="5" fill="#E7157B"/><text x="922" y="431" text-anchor="middle" font-size="24" font-weight="bold" fill="#fff">$</text>
<text x="922" y="458" text-anchor="middle" font-size="11" fill="#7a4a00">AWS Budgets</text>
<line x1="420" y1="84" x2="420" y2="175" stroke="#333" stroke-width="1.5" marker-end="url(#arrow)"/><rect x="425" y="118" width="66" height="16" rx="3" fill="#ffffff" fill-opacity="0.9"/><text x="430" y="130" font-size="10" fill="#333">①SSO認証</text>
<line x1="450" y1="227" x2="450" y2="255" stroke="#333" stroke-width="1.5" marker-end="url(#arrow)"/><rect x="455" y="233" width="60" height="16" rx="3" fill="#ffffff" fill-opacity="0.9"/><text x="460" y="245" font-size="10" fill="#333">SPA配信</text>
<line x1="450" y1="307" x2="450" y2="380" stroke="#333" stroke-width="1.5" marker-end="url(#arrow)"/><rect x="455" y="336" width="92" height="16" rx="3" fill="#ffffff" fill-opacity="0.9"/><text x="460" y="348" font-size="10" fill="#333">②fetch /api/*</text>
<polyline points="585,410 630,410 630,196 680,196" fill="none" stroke="#333" stroke-width="1.5" marker-end="url(#arrow)"/><rect x="636" y="296" width="180" height="16" rx="3" fill="#ffffff" fill-opacity="0.9"/><text x="641" y="308" font-size="10" fill="#333">③/api除去・ヘッダ付与して転送</text>
<line x1="760" y1="84" x2="575" y2="178" stroke="#B85450" stroke-width="1.5" stroke-dasharray="5 3" marker-end="url(#arrowRed)"/><rect x="560" y="120" width="128" height="16" rx="3" fill="#ffffff" fill-opacity="0.9"/><text x="565" y="132" font-size="10" fill="#B85450">未認証→エッジで遮断</text>
<line x1="820" y1="84" x2="820" y2="175" stroke="#B85450" stroke-width="1.5" stroke-dasharray="5 3" marker-end="url(#arrowRed)"/><rect x="826" y="118" width="118" height="16" rx="3" fill="#ffffff" fill-opacity="0.9"/><text x="831" y="130" font-size="10" fill="#B85450">生URL直叩き→403</text>
<polyline points="135,662 135,700 785,700 785,590" fill="none" stroke="#9673A6" stroke-width="1.5" stroke-dasharray="4 3" marker-end="url(#arrowPurple)"/><rect x="410" y="692" width="68" height="16" rx="3" fill="#ffffff" fill-opacity="0.9"/><text x="415" y="704" font-size="10" fill="#7a5a8a">provision</text>
<polyline points="255,216 285,216 285,276 315,276" fill="none" stroke="#6E7781" stroke-width="1.5" stroke-dasharray="4 3" marker-end="url(#arrowGray)"/><rect x="288" y="240" width="52" height="16" rx="3" fill="#ffffff" fill-opacity="0.9"/><text x="293" y="252" font-size="10" fill="#555">デプロイ</text>
<line x1="155" y1="236" x2="155" y2="248" stroke="#6E7781" stroke-width="1.5" stroke-dasharray="4 3" marker-end="url(#arrowGray)"/>
<rect x="300" y="620" width="460" height="30" rx="8" fill="#ffffff" stroke="#cccccc"/>
<text x="310" y="640" font-size="10" fill="#444">凡例：──▶ 正規フロー　　╌╌▶（赤）攻撃=Cloudflare/403で遮断　　╌╌▶（灰/紫）デプロイ・provision</text>
</svg>